<?xml version="1.0" encoding="utf-8"?>
<!-- Generator: Adobe Illustrator 19.2.1, SVG Export Plug-In . SVG Version: 6.00 Build 0)  -->
<svg version="1.1" id="Calque_1" xmlns="http://www.w3.org/2000/svg" xmlns:xlink="http://www.w3.org/1999/xlink" x="0px" y="0px"
	 viewBox="0 0 2267.7 2267.7" style="enable-background:new 0 0 2267.7 2267.7;" xml:space="preserve">
<style type="text/css">
	.st0{fill:#F1F2F2;stroke:#000000;stroke-width:41;stroke-miterlimit:10;}
	.st1{fill:#FFFFFF;}
</style>
<polygon points="1135.7,2220 201.9,1680.9 201.9,602.6 1135.7,63.5 2069.5,602.6 2069.5,1680.9 "/>
<g>
	<path class="st1" d="M463,1255.1c0.3-1.3,0.9-2.7,1-4c0.8-23.9,6.5-46.8,14.7-69.2c7-19.1,16.3-37.1,27.5-53.9
		c6.5-9.8,13.8-19.2,21.6-27.9c13.3-14.7,27.9-28.1,44.7-38.9c23.6-15.1,48.7-26.6,76.8-29.9c11.8-1.4,23.8-2.7,35.6-1.8
		c25.6,1.8,50.3,7.5,72.8,20.6c1,0.6,2.7,0.6,4,0.3c20.7-5.1,41.4-10.3,62.1-15.3c1.4-0.3,3.5,0.2,4.5,1.1c4.6,4.2,5.8,8.6,4.1,15.4
		c-8.3,32-15.6,64.2-23.2,96.4c-5.7,23.9-11.3,47.8-16.9,71.8c-6.4,27.4-13.1,54.8-19,82.3c-2.1,9.6-2.8,19.5-3.1,29.3
		c-0.2,5,1.2,10.4,3.1,15.2c2.5,6.4,8.9,8,14.9,9.8c10.8,3.2,19.8-2.3,29.1-5.9c32.2-12.3,61.7-29.8,89.9-49.4
		c12.5-8.7,24.2-18.6,35.8-28.4c18.3-15.5,36.3-31.5,54.4-47.3c9.7-8.5,19.2-17.1,28.8-25.8c14.5-13.1,28.7-26.3,43.4-39.2
		c6.7-5.9,14.3-10.8,21.2-16.5c3.4-2.8,5.8-6.9,9.2-9.8c19.8-17,39.6-34.1,59.8-50.7c11.8-9.8,24.4-18.7,37.3-27.5
		c-2.2,4.9-4.5,9.9-6.7,14.8c-6.3,14.1-11.3,28.6-12.2,44.1c-0.5,8-6.5,11-11.4,15.2c-9.9,8.6-20.2,16.8-30.2,25.4
		c-14.6,12.5-29.2,25.1-43.7,37.7c-3.6,3.1-6.9,6.8-10.7,9.5c-5,3.6-4.9,9-6,14c-3.8,17.2-7.4,34.4-11,51.6
		c-6.9,32.9-15.8,65.2-27.2,96.7c-6.1,16.8-13.5,33.2-20.5,49.7c-9.6,22.6-22.1,43.8-35.7,64.1c-10.5,15.6-22.4,30.3-34.4,44.7
		c-8.9,10.7-18.4,20.9-28.5,30.5c-16.8,15.9-35.3,29.6-55.6,41c-18.3,10.2-37.6,18-58,22.8c-7.3,1.7-14.8,2.5-22.2,3.7
		c-0.7,0.1-1.3,0.6-2,1c-11,0-22,0-33,0c-5-1-10.1-2-15.1-3c-16.1-3.4-30.8-9.9-43.1-20.8c-17.6-15.6-25.7-35.2-24-59
		c1.1-15.4,7.1-28.4,17.7-38.7c14.2-13.8,31-21.8,51.7-19.6c12.2,1.3,22.9,5.5,31.7,13.8c12.8,12.1,18.1,27,16.1,44.8
		c-1.3,11.4-6.6,19.5-16,25.6c-4.4,2.8-8.5,6.2-12.3,9.8c-5,4.8-4.9,11.6,0.1,16.5c4.7,4.6,10.4,6.4,17,4.8c8.7-2.2,17.9-2.9,26-6.3
		c23.6-10.1,41.2-27.6,56.1-48c12-16.4,21.9-34.1,29-53.2c7.1-19.4,14.2-38.8,19.9-58.7c6.2-21.6,11-43.5,16.3-65.4
		c2.2-9,4.2-18,6.3-27.4c-1.6,0.5-2.5,0.7-3.1,1.1c-13.2,8.8-26.2,17.8-39.5,26.3c-27.7,17.7-57,32.5-88.7,41.7
		c-16.7,4.9-33.6,7.3-51.1,4.8c-19-2.7-32.7-13.6-43.9-28c-6-7.6-9.2-16.9-10.6-27.4c-6.9,6.3-12.9,12.5-19.7,17.7
		c-13.6,10.4-28,19.7-43.7,27c-14.3,6.6-29.2,10.8-45,10.5c-7.7-0.1-15.4-0.9-23.1-2c-26.8-3.8-48.5-16.8-64.6-38.3
		c-19-25.4-27.1-54.7-28.5-86.1c-0.1-1.5-0.6-3-1-4.5C463,1271.7,463,1263.4,463,1255.1z M545.8,1272.7c0.5,6.4,1.5,16.5,2.2,26.7
		c1,13.9,4.8,27,11.8,39c5.4,9.2,13,16.1,23.2,19.6c9.2,3.1,18.5,4.5,28.4,3.3c13.8-1.6,27.1-4.8,38.6-12.8
		c11.7-8.1,22.9-16.9,33.9-25.9c4.4-3.7,9.4-8.4,10.8-13.6c6.4-23.7,11.7-47.7,17.4-71.6c7.3-30.7,14.8-61.4,21.9-92.1
		c3.1-13.4,7.8-26.4,4.3-40.8c-3.6-14.8-10.6-26.3-24.4-33.5c-12.3-6.4-25.3-7.7-38.9-7c-13.5,0.7-25.7,4.9-36.9,11.8
		c-20.5,12.6-36.6,29.8-50.1,49.6c-13.9,20.4-23.2,42.9-30.4,66.4C549.9,1217,546.4,1242.6,545.8,1272.7z"/>
	<path class="st1" d="M1841,1043.1c-2.3,9.6-4.8,19.1-7,28.7c-3.8,17.5-7.4,35.1-11.2,52.6c-4.9,22.8-9.9,45.5-14.9,68.2
		c-3.4,15.4-6.9,30.8-10.3,46.2c-4.6,20.8-8.8,41.7-13.7,62.5c-5.8,24.5-11.6,49.1-18.4,73.4c-6.8,24.4-16.3,47.8-28,70.3
		c-9.4,18.1-20.7,34.8-34.1,50.2c-18.4,21.2-39.6,39.1-62.9,54.5c-25,16.4-52.1,28.3-81.5,34.3c-14.6,3-29.3,4.8-44.2,3.9
		c-22.8-1.3-44.7-6.4-63.7-19.9c-16.4-11.7-27.1-27.1-30.3-47.5c-3.7-23.8,2.9-44,21.1-59.8c10.2-8.9,22.2-14.5,36.2-15.9
		c17.9-1.7,33.4,3.3,46,16c9,9.1,14,20.2,14,33.5c0,9.9-0.7,19.5-7.2,27.4c-2.6,3.2-6.3,5.6-9.6,8.1c-3.9,2.9-8.3,5.3-12,8.4
		c-4.2,3.5-6.8,8-4.6,13.9c2.5,6.5,7.6,9.3,14.1,9.7c19.9,1.2,36.7-7.2,52.5-17.8c15.5-10.4,28.3-23.6,40.7-37.4
		c16.2-18.1,29.9-38.1,42.5-58.8c11.6-19.1,19.4-39.8,25.5-61.2c2.1-7.3,4.1-14.7,6.3-22.3c-11.4,7.6-22.2,15-33.3,22.1
		c-19.4,12.3-40,21.3-63.1,23.5c-9,0.9-18.1,2.1-27.1,1.9c-21.9-0.6-42.1-6.5-57.9-22.6c-12-12.3-18.9-27.1-21-44.3
		c-2.3-18.3-0.6-36.2,3.7-53.8c10.8-43.4,22.3-86.7,33.4-130c5.9-22.8,11.7-45.7,17.7-68.5c5.6-21.2,0.8-40.1-12.1-57.4
		c-0.3-0.4-0.4-0.8-1-2c4.8-1.1,9.3-2.4,13.8-3.1c14.9-2.3,29.5-1.1,43.7,3.9c17.9,6.4,28,19.3,31.9,37.7
		c3.9,17.9,1.3,35.3-2.8,52.6c-10.1,41.8-20.7,83.4-30.9,125.1c-3.7,15.2-7.3,30.4-10.1,45.8c-2.2,12.2-2.1,24.5,2.8,36.3
		c5.3,13.1,15.7,19.6,28.7,20.3c27.6,1.6,51.3-8.6,72.7-24.9c6.7-5,12.7-10.9,19.3-16.1c5.2-4.1,4.9-10.2,6.2-15.6
		c4.4-18.9,8.2-37.9,12.3-56.8c5.2-24,10.5-48,15.9-72c3.8-17.2,8-34.2,11.8-51.4c4.8-21.6,9.4-43.3,14.1-64.9
		c1.1-4.9,2.2-9.9,3.3-14.8c5.6-0.5,11.2-1,16.8-1.5c17.9-1.3,35.8-2.6,53.7-3.8c1.2-0.1,2.8,0.9,3.7,1.8c3,3.2,5.7,6.6,8.6,10
		C1841,1042.4,1841,1042.7,1841,1043.1z"/>
	<path class="st1" d="M1261,784.1c1,0.3,2,0.9,3,1c20.3,0.5,39.5,5.1,57.4,14.8c19.9,10.8,34.4,26.3,37.3,49.4
		c3,23.6-5.5,50.3-29.8,61.3c-13.4,6-27.3,5.7-41.1,0.9c-14.1-5-22.5-15.3-26.3-29.4c-3.5-12.9-0.5-24.9,6.1-36.2
		c2.8-4.8,5.5-9.7,7.7-14.8c4.2-9.9-2.7-17.7-12.5-20c-25.8-6-49,0.7-69.7,16.4c-19.4,14.6-31.9,34.6-42.1,56.2
		c-11.6,24.6-19.7,50.4-25.9,76.7c-6.2,26.1-11.7,52.5-17,78.8c-3.5,17.3-5.9,34.8-9.4,52c-0.7,3.4-4,6.7-6.9,9.3
		c-6.9,6.4-14.2,12.3-21.2,18.4c-13.6,11.9-27.3,23.9-40.9,35.9c-9.6,8.5-19.1,17.2-28.8,25.7c-13,11.4-26.1,22.7-39.1,34.1
		c-5,4.4-9.9,9.1-15.9,13.1c1.4-6.4,2.6-12.7,4.1-19.1c6.9-28.3,13.7-56.6,20.9-84.9c7-27.3,13.5-54.7,22.2-81.4
		c7.3-22.4,17.2-43.9,26.5-65.6c11-25.6,25.1-49.5,41.2-72.2c8.4-11.9,17.5-23.3,26.7-34.5c5.9-7.3,12.2-14.4,18.9-20.9
		c20.7-19.8,43.7-36.7,70.1-48.2c17.4-7.6,35.4-13.4,54.5-14.9c5-0.4,9.9-1.3,14.8-1.9C1251,784.1,1256,784.1,1261,784.1z"/>
	<path class="st1" d="M1426.2,1274.5c-0.1,32.1-9.5,56.7-26.6,78.4c-13.6,17.3-30.5,30.9-50.3,40.4c-16.8,8.1-34.4,14-53.2,15.7
		c-9.7,0.9-19.4,2.2-29.1,1.9c-31.6-0.9-62-7.1-90-22.5c-25.1-13.8-44.4-33.2-53.2-61.2c-6.2-20-6.4-39.8,6.2-57.9
		c6.5-9.4,15.7-14.2,27.3-15.4c8.8-0.9,17.2-0.4,25.5,2.5c13.6,4.8,21.6,15.1,26.1,28.1c5.9,16.9,3.9,33.5-3.4,49.7
		c-2.7,6-4.9,12.4-6.3,18.8c-1.3,5.8,2.5,10.6,6.6,14.1c11.5,9.6,25.3,13.7,39.9,16c22.2,3.5,41.9-2.8,58.4-17
		c21.8-18.7,29.6-48.3,11.1-74c-6.5-9-15.5-16.2-23.7-23.9c-5.7-5.4-12.1-10.2-18-15.3c-6.5-5.6-13.5-10.9-19-17.3
		c-9.2-10.6-18.3-21.5-26-33.3c-8.9-13.5-15.2-28.4-18.5-44.5c-3.1-15-3.8-29.8-1.1-45c3.4-19.2,10.8-36.5,21.4-52.6
		c11-16.7,26.2-28.8,42.9-39.2c19-11.9,39.5-20,62.1-22c10.2-0.9,20.5-2.4,30.6-1.8c20.6,1.3,40.7,5.6,60,13.1
		c20,7.7,38.2,18.3,52.5,34.6c17.2,19.6,26.2,42.4,23.6,68.7c-1.8,17.4-11.2,33.9-28.2,38.4c-30.9,8.2-56.1-5.2-62.7-38.2
		c-2.9-14.5,0.4-27.9,6.1-41.1c2.2-5.1,4.2-10.2,6.2-15.3c1.4-3.5-0.1-5.7-3.2-7.4c-16.4-9.3-34.3-14.3-52.8-16.9
		c-16.8-2.4-31.8,2-43.8,14.1c-12.8,12.9-20.4,28.4-18.3,46.9c1.8,16.2,9.1,29.8,22.3,40c4.4,3.4,8.5,7.4,12.5,11.3
		c14.1,13.3,28.5,26.4,42,40.3c14.7,15.1,27.7,31.6,35.9,51.2C1423.4,1250.3,1426.9,1264.1,1426.2,1274.5z"/>
</g>
</svg>
