<?xml version="1.0" encoding="utf-8"?>
<!-- Generator: Adobe Illustrator 19.2.1, SVG Export Plug-In . SVG Version: 6.00 Build 0)  -->
<svg version="1.1" id="Calque_1" xmlns="http://www.w3.org/2000/svg" xmlns:xlink="http://www.w3.org/1999/xlink" x="0px" y="0px"
	 viewBox="0 0 529.2 363.6" style="enable-background:new 0 0 529.2 363.6;" xml:space="preserve">
<style type="text/css">
	.st0{fill:#FEFEFE;}
	.st1{fill:#284595;}
	.st2{fill:#27519F;}
	.st3{fill:#284D9C;}
	.st4{fill:#275BA6;}
	.st5{fill:#2754A1;}
	.st6{fill:#2759A5;}
	.st7{fill:#275EA8;}
	.st8{fill:#2669B1;}
	.st9{fill:#266FB5;}
	.st10{fill:#2766AE;}
	.st11{fill:#275DA8;}
	.st12{fill:#284697;}
	.st13{fill:#2762AB;}
	.st14{fill:#294696;}
	.st15{fill:#284998;}
	.st16{fill:#294E9C;}
	.st17{fill:#2858A4;}
	.st18{fill:#2761AB;}
	.st19{fill:#2762AC;}
	.st20{fill:#2686C6;}
	.st21{fill:#284999;}
	.st22{fill:#284A99;}
	.st23{fill:#268CCB;}
	.st24{fill:#284898;}
	.st25{fill:#2855A1;}
	.st26{fill:#294697;}
	.st27{fill:#284C9B;}
	.st28{fill:#2779BC;}
	.st29{fill:#275EA9;}
	.st30{fill:#28529F;}
	.st31{fill:#2779BD;}
	.st32{fill:#266CB3;}
	.st33{fill:#267CBF;}
	.st34{fill:#267FC1;}
	.st35{fill:#2778BC;}
	.st36{fill:#2873B8;}
	.st37{fill:#2853A0;}
	.st38{fill:#2757A3;}
	.st39{fill:#2860AA;}
	.st40{fill:#2781C3;}
	.st41{fill:#2671B7;}
	.st42{fill:#294F9D;}
	.st43{fill:#276AB1;}
	.st44{fill:#2887C7;}
	.st45{fill:#2775BA;}
	.st46{fill:#295CA7;}
	.st47{fill:#2854A1;}
	.st48{fill:#2870B6;}
	.st49{fill:#2682C4;}
	.st50{fill:#296CB3;}
	.st51{fill:#2B61AA;}
	.st52{fill:#2974B9;}
	.st53{fill:#2773B8;}
	.st54{fill:#277DC0;}
	.st55{fill:#296CB2;}
	.st56{fill:#2B5DA7;}
	.st57{fill:#2970B6;}
	.st58{fill:#2B67AE;}
	.st59{fill:#2986C6;}
	.st60{fill:#2890CE;}
	.st61{fill:#2876BA;}
	.st62{fill:#2870B5;}
	.st63{fill:#2C519E;}
	.st64{fill:#287DBF;}
	.st65{fill:#2C64AC;}
	.st66{fill:#297DBF;}
	.st67{fill:#316DB2;}
	.st68{fill:#3068AE;}
	.st69{fill:#2F4B99;}
	.st70{fill:#2882C3;}
	.st71{fill:#2A63AC;}
	.st72{fill:#2973B8;}
	.st73{fill:#315EA7;}
	.st74{fill:#326DB2;}
	.st75{fill:#306AB0;}
	.st76{fill:#2893D0;}
	.st77{fill:#2A77BB;}
	.st78{fill:#3461A9;}
	.st79{fill:#4C82BD;}
	.st80{fill:#3070B5;}
	.st81{fill:#2C61AA;}
	.st82{fill:#2C65AD;}
	.st83{fill:#2C54A0;}
	.st84{fill:#3088C7;}
	.st85{fill:#2D8DCB;}
	.st86{fill:#296FB5;}
	.st87{fill:#64A5D4;}
	.st88{fill:#8DBEE0;}
	.st89{fill:#5C91C7;}
	.st90{fill:#4D69AB;}
	.st91{fill:#98B3D7;}
	.st92{fill:#4B7CB9;}
</style>
<g>
	<path class="st0" d="M120.7,181.4c0-53.8,0-107.7-0.1-161.5c0-3.4,0.7-4.1,4.1-4.1c93.3,0.1,186.7,0.1,280,0c3.4,0,4.1,0.7,4.1,4.1
		c-0.1,108-0.1,216,0,324c0,3.4-0.7,4.1-4.1,4.1c-93.3-0.1-186.7-0.1-280,0c-3.4,0-4.1-0.7-4.1-4.1
		C120.7,289.8,120.7,235.6,120.7,181.4z"/>
	<path class="st1" d="M151.1,66.4c5.7-13.3,11.1-25.5,16.3-37.8c1.2-2.8,2.8-1.1,4-0.6c11.4,4.7,22.8,9.5,34.1,14.2
		c3.6,1.5,7.3,3,10.9,5.5C195,53.9,173.6,60,151.1,66.4z"/>
	<path class="st2" d="M190.7,135.9c-2.6-4.3-5.2-8.7-7.9-13c6.8-11.3,14.4-22.1,22.9-32.2c1.2-1.4,2-3,2.9-4.6
		c5.3,1.4,10.6,2.7,16,4.1c1.3,2.2-0.6,3.3-1.7,4.6c-9.8,11.9-19.7,23.6-26.9,37.4C195.1,134.1,194.2,137.2,190.7,135.9z"/>
	<path class="st3" d="M208.7,86.1c1.1,1.5,0.6,2.6-0.5,3.9c-8.5,9.4-15.8,19.7-22.3,30.6c-0.7,1.2-1.4,2.2-2.9,2.3c-3-5-6-10-9-15
		c3.4-7.4,8.7-13.5,13.6-19.8c1.6-2.1,3.1-4.2,5.1-6C198,83.4,203.3,84.8,208.7,86.1z"/>
	<path class="st4" d="M214.3,166.1c-0.2,0-0.4,0-0.5-0.1c-7.2-3.9-7.2-3.9-3.8-11.1c8.6-18,17.2-36,25.8-53.9c0,10.3,0,20.6,0,30.9
		c-6.7,9.2-12.7,18.7-16.8,29.4C218.2,163.5,217.9,166.5,214.3,166.1z"/>
	<path class="st5" d="M190.7,135.9c3.1-0.3,3.8-3.1,4.9-5.1c7.1-14,17.3-25.8,27.4-37.6c0.8-0.9,1.6-1.7,1.7-2.9
		c3.5,0.8,7.1,1.4,10.7,3.1c-13.4,16.8-26.7,33.4-40,50.2C193.3,140.9,191.8,138.6,190.7,135.9z"/>
	<path class="st6" d="M262.4,98c-6.1-1.9-12.2-3.8-19.8-6.1c3.1-1.4,4.9-2.2,6.7-3c13.3-5.9,26.6-11.8,39.9-17.6
		c5.5-2.4,5.5-2.4,6.6,3.4c0.1,0.8,0.6,1.5,0.9,2.2c1.2,2.5-0.8,3.4-2.4,4c-10.3,4.2-19.6,10-28.7,16.3
		C264.7,97.8,263.7,98.6,262.4,98z"/>
	<path class="st7" d="M214.3,166.1c2.1-0.8,2.7-2.8,3.4-4.7c3.5-10,9.1-18.8,14.9-27.5c0.8-1.2,1.7-2,3.1-2.1
		c-0.1,8.4-0.2,16.7-0.4,25.1c-0.5,5.9-0.1,11.8-0.3,17.7c0,1.2,1,3.1-1.5,3.3C226.8,174.6,220.5,170.4,214.3,166.1z"/>
	<path class="st8" d="M270.8,156.9c-1.6-3.3-3.2-6.7-4.8-10c9.9-13.3,22.5-23.4,36.7-31.8c2.2,0.6,4.4,1.3,7.4,2.1
		c-3.7,5.1-7.1,9.9-10.5,14.7c-9.3,6-16.8,13.8-23.7,22.4C274.6,155.9,273.6,158.3,270.8,156.9z"/>
	<path class="st9" d="M293.7,167.7c-3,0.1-5.9,0.2-8.9,0.4c-1.9,0.1-4.1,1.6-5.2-1.2c9.7-14,19.3-28,29-41.9
		c2.8,1.2,1.4,3.4,1.2,5.3c-0.1,3-0.2,5.9-0.3,8.9c-0.7,2.7,0.4,5.5-0.7,8.1c-0.1,1.6-0.1,3.2-0.2,4.8
		C302.8,156.4,297.8,161.7,293.7,167.7z"/>
	<path class="st10" d="M302.6,115.1c-4.8,5.8-11.9,8.6-17.5,13.6c-5.4,4.9-10.9,9.6-15.3,15.4c-1,1.3-2,2.7-3.9,2.8
		c-1.7-3.7-3.4-7.3-5.1-11c8.2-9.5,17.5-17.8,27.8-25.1C293.8,110.8,297.8,114.1,302.6,115.1z"/>
	<path class="st10" d="M259.7,141.9c2.4,3.3,3.5,7.1,5.1,10.8c0.5,0.9,0.6,2,0,2.8c-4.3,6.1-7.1,13-11.1,19.3
		c-3.8,1.2-7.6,2.4-11.3,3.8c-3,1.1-4.8,0.8-4.3-3c0.3-2-0.4-4,0.5-5.9c2,2.1,2-0.5,2.3-1.2c4-8.3,8.4-16.4,13.9-23.9
		C255.9,143,256.8,140.5,259.7,141.9z"/>
	<path class="st11" d="M262.4,98c9.7-7,19.6-13.6,30.9-18c1.5-0.6,3.3-1,3.4-3.2c2,3.7,3.2,7.7,4.1,11.8c0.9,2.1-0.3,3.2-1.9,3.9
		c-6.2,2.7-12,6.2-17.6,10c-1.1,0.7-2.3,1.3-3.7,0.5C272.3,101.8,267.3,100.1,262.4,98z"/>
	<path class="st12" d="M151.6,125.3c-2.3-0.3-3.4-1.4-3.3-4c0.6-15.2,1-30.4,2.4-46.1c4.7,8.2,9.4,16.3,14.2,24.5
		c0.5,1.2-0.1,2.3-0.6,3.3c-4.1,6.6-7.3,13.7-10.9,20.6C152.8,124.2,152.3,124.9,151.6,125.3z"/>
	<path class="st13" d="M288.7,110.8c-0.1,3.3-3.2,4.1-5.2,5.4c-6.8,4.6-12.1,10.7-17.9,16.2c-1.4,1.3-2.4,3.2-4.7,3.4
		c-1.8-4-3.7-7.9-5.5-11.9c5.3-7.6,12.7-12.9,20.3-17.9C280.1,107.5,284.6,108.5,288.7,110.8z"/>
	<path class="st14" d="M144.5,115.7c-4.6-11.5-9.3-23-14-34.5c-0.7-1.6-0.7-2.6,1.3-3.4c4.7-1.9,9.4-4.1,14.2-6.2
		c0,15,0,29.5,0,44.1C145.5,115.7,145,115.7,144.5,115.7z"/>
	<path class="st15" d="M192.7,82c-0.6,4.7-4.7,7.1-7.3,10.4c-3.9,5.1-6.8,11-11.5,15.4c-3-4.5-5.9-9-8.3-13.9
		c2.8-6.2,6.6-11.6,12-15.8C182.6,79.4,187.6,80.7,192.7,82z"/>
	<path class="st16" d="M232.9,69.9c-2.3-6.8-4.6-13.7-6.8-20.3c11,0,21.7,0,33.3,0c-1.6,2.7-2.7,4.5-3.8,6.3
		c-1.2,2.4-3.6,3.1-5.7,4.4c-4.1,2.5-7.9,5.2-11.8,8C236.6,69.4,235.2,71.3,232.9,69.9z"/>
	<path class="st17" d="M204.8,158.7c-0.7-0.8-1-1-1.2-1.2c-7-10.7-7-10.7,0.9-20.6c6.6-8.3,13.3-16.7,19.9-24.9
		c0.9-1.1,1.5-2.6,4.2-3.4C220.6,125.6,212.8,141.9,204.8,158.7z"/>
	<path class="st18" d="M277.5,103c6.2-3.6,12.4-7.2,18.6-10.7c1.8-1,4.3-0.8,4.7-3.6c3.8,7.6,5,16,8.5,24.9
		C297.9,110.4,287.6,106.9,277.5,103z"/>
	<path class="st19" d="M259.7,141.9c-2.3-0.1-2.9,1.9-3.9,3.4c-6.3,8.7-11.1,18.4-16,28.4c-1.6-1.3-1-2.7-1.2-3.9
		c0.1-6,0.2-11.9,0.2-17.9c3.2-6.5,7.4-12.2,11.8-17.9c1-1.3,2.1-3.2,4.4-2.3C256.6,135.1,258.2,138.5,259.7,141.9z"/>
	<path class="st20" d="M332.1,270.8c-1.4-10.9-2.6-21.4-4.2-31.9c-0.5-3.4,0-5.6,3.4-7.2c2.9-1.4,5.6-3.4,8.3-5.2
		c0.9-0.6,1.9-0.9,2.7-0.2c0.4,0.3,0.5,1.2,0.3,1.8c-3.2,13.9-6.4,27.9-9.7,41.8C332.9,270.2,332.5,270.4,332.1,270.8z"/>
	<path class="st21" d="M151.6,125.3c3.3-9.1,8.1-17.4,13.2-25.6c3.4,3.9,5.2,8.8,7.9,13.2c-1.1,6.1-4.8,11.1-7.7,16.3
		c-0.5,0.8-1.4,1.4-2.6,0.9C158.6,128.9,155,127.2,151.6,125.3z"/>
	<path class="st22" d="M214.6,51.9c0.3-0.2,0.5-0.5,0.8-0.6c7.7-2.4,7.7-2.4,9.4,5.6c-6.8,5.1-12.7,11.2-19.3,16.5
		c-2.4,1.9-3.6,4.8-5.9,6.7c-4.2-0.5-8.2-1.6-12.1-3.1C196.1,68.1,205.2,59.8,214.6,51.9z"/>
	<path class="st23" d="M359.7,218.7c-1.8,0.1-3.6,0.3-5.4,0.4c-6.9,0.3-6.9,0.3-6.7-6.9c-0.6-4-0.8-8,0.1-12c7.3,2.7,14.7,5.3,22,8
		c1.1,0.5,1.6,1.4,0.9,2.4C367.9,214.4,365.9,219.3,359.7,218.7z"/>
	<path class="st24" d="M214.6,51.9c-2.2,5.5-7.6,7.8-11.6,11.6c-3.6,3.5-7.7,6.7-10.6,10.9c-1.2,1.8-2.8,2.8-4.9,2.6
		c-2.4-0.1-4.8-0.7-7-1.8c-1.1-1.6-0.2-2.8,0.7-4c3.7-4.8,7.8-9.3,12.3-13.4C200.5,55.3,207.6,53.6,214.6,51.9z"/>
	<path class="st3" d="M162.4,130c3.2-1.8,3.6-5.4,5.2-8.2c1.8-2.9,3.4-6,5.1-9c5.6,7.2,8.7,16,13.9,23.4c0.9,2.1,0.9,3.6-1.9,3.6
		C176.9,137.4,169.7,133.5,162.4,130z"/>
	<path class="st25" d="M275.7,58.2c2.3,1.3,4.7,2.6,7,3.9c1.1,3.6-2,4.2-3.9,5.1c-9.7,4.5-18.7,10-27.4,16.2c-1,0.7-1.9,1.3-2.6,2.3
		c-1.7,0.8-3.5,1.7-5.2,2.5c-0.3-0.3-0.6-0.5-0.9-0.8c3-5.5,6.1-10.9,9.1-16.4C260.1,67.4,267.6,62.3,275.7,58.2z"/>
	<path class="st26" d="M193.6,57.8c-2.4,5.6-8,8.5-11,13.6c-0.7,1.2-2,2.2-2,3.8c-8.1-2-16.3-3.9-24.4-5.9c0-0.4,0-0.8,0-1.2
		C168.6,64.7,181.1,61.2,193.6,57.8z"/>
	<path class="st27" d="M199.6,80.1c0.1-1.7,0.7-3.4,2-4.4c6.8-5.8,12.8-12.4,20-17.6c0.9-0.6,2.1-0.8,3.2-1.1
		c1.6,2.4,1.9,5.4,2.7,8.1c-5.1,6.3-12.3,10.5-17.5,16.9c-0.7,0.8-1.8,0.7-2.8,0.3C204.6,82,202.1,81.2,199.6,80.1z"/>
	<path class="st28" d="M320.5,175c-3.2-1.5-5.4-4.2-8.5-6.5c8.1-6,16-11.8,24.2-17.8c0.9,3.8,1.7,6.9,1.6,10.2
		c0.9,1.3,0.3,2.3-0.7,3c-4.9,3.4-9.4,7.3-14.2,10.8C322.1,175.2,321.3,175.4,320.5,175z"/>
	<path class="st29" d="M275.6,106.1c-6.8,6-13.5,12-20.3,17.9c-2.2-3.9-4.2-7.9-5.6-12.1c4.2-3.1,7.9-6.8,11.9-10.1
		C266.6,102.3,271,104.8,275.6,106.1z"/>
	<path class="st30" d="M232.9,69.9c3.8-1.1,6.2-4.3,9.5-6.2c4.4-2.6,8.8-5.2,13.2-7.8c-5.4,10.4-10.8,20.7-16.9,32.4
		C236.5,81.4,234.7,75.6,232.9,69.9z"/>
	<path class="st31" d="M305.5,203c-3.2-0.8-5-3.6-7.7-5.1c-1.5-0.8-1.4-1.9-0.6-3.3c3.7-6.8,7.3-13.7,11.3-21.2
		c2.4,6.4,3.1,12.4,4.3,18.2C312.6,196.4,309.2,201.6,305.5,203z"/>
	<path class="st32" d="M270.8,156.9c4.4-1.5,6.1-5.8,8.7-9c4.6-5.7,10.4-10,15.8-14.8c1.1-1,2.6-1.4,4.2-1.2
		c-7.9,11.6-15.8,23.2-24.2,35.5C273.6,163.4,272.2,160.1,270.8,156.9z"/>
	<path class="st14" d="M177.6,78.1c-4,5.3-8,10.6-12,15.8c-4.4-7.2-8.9-14.3-13.8-22.4C161.3,73.2,169.4,76,177.6,78.1z"/>
	<path class="st33" d="M320.5,175c5.6-4,10.4-9,16.4-12.4c0.4-0.3,0.5-1.1,0.8-1.7c2,6.2,1.8,12.7,3,19c-2.5,1.9-4.4,4.8-8,5
		C328.6,181.6,324.6,178.3,320.5,175z"/>
	<path class="st14" d="M135.2,61.4c8.6-9.2,16.6-17.8,25.3-27.1c-0.5,5-2.7,8.5-4.2,12.1c-2.3,5.7-5,11.2-7.3,16.9
		c-1,2.5-2,3.5-4.6,2.1C141.7,64,138.7,62.9,135.2,61.4z"/>
	<path class="st34" d="M324.4,182.9c3.3,2.1,6.5,4.4,9.3,7.2c1.3,1.9-0.3,3-1.3,4.2c-3.9,4.9-6.7,10.5-8.8,16.4
		c-1,0.3-2.3,3.1-3-0.3c-1.4-6.4-2.8-12.9-4.1-19.3C318.2,187.6,319.2,183.3,324.4,182.9z"/>
	<path class="st35" d="M323.7,286c-5.5,5.4-11.8,9.8-18.9,13.5c2.7-8.5,5.3-17,8-25.6c0.5-1.1,1.5-1.6,2.4-0.8
		c3.3,3.4,7.1,6.4,9,11.1C324.4,284.8,324.1,285.4,323.7,286z"/>
	<path class="st36" d="M289.5,188c-3.7-5.2-7.4-10.3-11.5-16.1c7.4-1,13.9-1.1,20.5-1c3-1.1,4.6,0.1,3,2.9c-2.6,4.4-5.2,8.9-8.2,13
		C292.5,188.1,291.2,189.1,289.5,188z"/>
	<path class="st37" d="M275.7,58.2c-0.1,0.3,0,0.8-0.2,0.9c-7,4.9-14.7,8.5-22.1,12.6c-0.3,0.2-1.1-0.5-1.6-0.8
		c3.2-6.1,6.4-12.2,9.4-18.3c1-2,2.1-1.5,3.5-0.7C268.3,54.1,272,56.1,275.7,58.2z"/>
	<path class="st38" d="M248.7,85.6c0.9-3.7,4.5-4.6,7-6.6c6.9-5.5,15-9.1,22.9-13.1c1.7-0.9,3.9-1.3,4.1-3.9
		c2.7,1.4,5.4,2.8,9.2,4.7C276.8,73.4,262.7,79.5,248.7,85.6z"/>
	<path class="st39" d="M255.1,131.7c-5.2,3.3-7.5,9-11.1,13.6c-1.7,2.2-2.6,5-5.2,6.5c0-2.3,0.1-4.7,0.1-7c0.6-3.7,0.1-7.5,0.3-11.2
		c1.7-4.4,5.6-7,8.5-10.5c0.8-0.9,2-1,3.1-0.3C252.2,125.8,253.7,128.8,255.1,131.7z"/>
	<path class="st40" d="M323.9,242.2c3.5,10.9,3.9,22,6,34.4c-4.7-5.7-8.5-10.3-12.3-14.8c-0.9-1-0.8-2-0.3-3.2
		C319.6,253.2,321.7,247.7,323.9,242.2z"/>
	<path class="st41" d="M324,133.8c2.6,2.4,4.7,5.3,6.6,8.3c0.2,0.5,0.3,1.2,0,1.4c-5.8,4.5-11.4,9.5-18.7,11.4c0-1,0.1-2,0.1-3
		c0.7-2.7-0.4-5.5,0.7-8.1c0-1.3,0.1-2.5,0.1-3.8C315.7,136.5,319.4,134.4,324,133.8z"/>
	<path class="st42" d="M207.3,82c1.6,0,2.2-1.2,3.1-2.2c5.2-5.6,10.6-10.9,17.2-14.9c2.1,3,1.6,6.8,3.2,10
		c-3.9,3.6-7.3,7.7-12.2,10.1C214.5,85,211,83.4,207.3,82z"/>
	<path class="st43" d="M253.7,174.8c1.5-7,5.6-12.8,9.4-18.7c0.7-1.1,1.7-2,1.7-3.4c2.3,4.7,4.6,9.4,7,14.1c1,2,0.7,2.8-1.5,3.4
		C264.6,171.6,259.2,173.3,253.7,174.8z"/>
	<path class="st44" d="M324,214.8c6.9-5,12.9-9.4,19.4-14.2c1.3,5.9,0.7,11.3,1,16.7c0.1,1.7-1.1,1.8-2.4,1.5
		C336.4,217.5,330.8,216.2,324,214.8z"/>
	<path class="st45" d="M311.8,154.9c6.2-4.4,13.2-7.6,18.8-12.8c4.8,5.1,4.8,5.1-0.6,9.2c-6,4.4-12,8.9-18.9,14
		C311.4,161.2,311.6,158,311.8,154.9z"/>
	<path class="st46" d="M250.8,122.9c-3.8,0.2-4.2,4.3-6.6,6.1c-1.6,1.2-2.9,2.6-4.4,3.9c-1.1-4-0.7-8.1-0.2-12.2
		c0-6.8,0-13.6,0-20.4c0.3-0.1,0.6-0.2,0.9-0.3C243.9,107.6,247.4,115.3,250.8,122.9z"/>
	<path class="st47" d="M179.7,141.7c0.8,0.2,1.6,0.4,2.3,0.8c12,5.1,12,5.1,7.8,18.5c-4.5-4.1-8.9-8.1-13.2-12
		C175.5,145.6,177.1,143.4,179.7,141.7z"/>
	<path class="st48" d="M277.6,190.9c-4.5-0.4-8.6-2-13.3-3.4c3.7-5,7.1-9.7,10.7-14.5c2.9,4.2,5.4,8,8,11.7
		C281.4,187,282.4,191.5,277.6,190.9z"/>
	<path class="st46" d="M261.7,101.8c-1.6,3.6-9,9.9-11.9,10.1c-2.7-5.4-5.4-10.9-8.5-17.2C248.7,97.2,255.4,98.8,261.7,101.8z"/>
	<path class="st49" d="M323.6,210.7c-1.3-1.7-0.2-3.1,0.4-4.6c2.4-5.8,6.3-10.8,9.6-16c2.9,2.2,5.8,4.4,9.2,7
		C336.1,201.8,330.3,206.9,323.6,210.7z"/>
	<path class="st50" d="M244,181.3c8.2-2.5,16.5-5,25.9-7.8c-1.6,4.3-4.6,6.6-6.2,9.8c-2.4,4.7-5.7,3-9.2,1.9c-3.5-1-7-1.9-10.5-2.8
		C244.1,182,244,181.6,244,181.3z"/>
	<path class="st51" d="M222.5,193c-5.8-4.8-11.7-9.6-17.5-14.4c0.1-0.2,0.3-0.5,0.4-0.7c7.4,1.4,14.9,2.8,22.3,4.2
		c1.4,3.5-0.5,6.6-1.6,9.7C225.6,193.3,224.1,193.9,222.5,193z"/>
	<path class="st52" d="M268,191.9c7.3,2,14.7,3.9,23.7,6.3c-3.6,3.2-6.4,5.6-9.1,8.1c-1.4,1.4-2.1,0.8-3.1-0.3
		c-4.1-4.5-8.2-9-12.3-13.5C267.5,192.3,267.8,192.1,268,191.9z"/>
	<path class="st53" d="M293.7,167.7c2.7-7.3,7.6-12.6,14.9-15.7c0,0.5,0.1,1,0.1,1.5C308.6,167.5,308,168,293.7,167.7z"/>
	<path class="st54" d="M323.7,286c-1.2-5.4-6.5-8-9.1-12.4c-0.1-0.2-1.2,0.2-1.8,0.3c0.7-2.9,1.5-5.7,2.6-9.9
		c4.9,6,9.2,11.2,13.5,16.5c1,1.2-0.1,1.8-0.8,2.4C326.7,283.9,325.2,284.9,323.7,286z"/>
	<path class="st55" d="M306.2,324.8c-6.4-1.3-11.9-2.4-18.5-3.7c4.3-3.8,7.8-7,11.3-10.2c1.2-1.1,2-0.9,2.5,0.6
		C303,315.7,304.4,319.8,306.2,324.8z"/>
	<path class="st56" d="M223.6,178c-6.6-1.1-13.2-2.3-19.8-3.4c-2-0.3-2.6-1-1.7-3.3c2.8-6.9,4.1-7.3,10.1-2.5
		c4.1,3.3,8.5,6.2,13.5,8.2C225.7,178.9,224.7,178.4,223.6,178z"/>
	<path class="st30" d="M218.5,85c3.7-3.8,7.1-8,12.2-10.1c2.2,4.4,3.3,9.3,5.1,14.7C229.6,88.3,224,87,218.5,85z"/>
	<path class="st57" d="M315.7,309.1c-2.1,4.4-4.2,8.8-6.7,14c-1.9-5.1-3.7-9.4-5.1-13.7c-1.3-4,2.8-4.5,4.7-6.4
		C312.2,303.6,315,305.1,315.7,309.1z"/>
	<path class="st58" d="M303.9,327.5c-6.5,3.3-12.1,6.1-17.4,8.8c-0.4-0.4-0.6-0.5-0.6-0.6c-1.2-11.9-1.2-11.9,10.3-9.7
		C298.3,326.3,300.5,326.8,303.9,327.5z"/>
	<path class="st59" d="M322.6,217.7c6.3,1.3,12,2.6,19.2,4.1c-5.3,3.2-9.4,5.7-13.6,8.3c-1.7,1.1-2-0.4-2.3-1.4
		C324.9,225.2,323.9,221.8,322.6,217.7z"/>
	<path class="st60" d="M359.7,218.7c5-1.5,9.5-6.3,10-10.6c4.9,0.8,8.9,4.4,13.9,5.1c0.3,4.4-3.1,4.1-5.9,4.5
		C371.7,218,365.7,218.4,359.7,218.7z"/>
	<path class="st61" d="M289.5,188c2,0,2.7-1.5,3.6-2.9c2.3-3.8,4.6-7.6,7.1-11.1c1.9-2.7,0.6-3-1.7-3c2.4-1,4.8-0.6,8-0.7
		c-4.2,8-8.3,15.6-12.4,23.5C291.8,192.3,290.9,189.9,289.5,188z"/>
	<path class="st62" d="M324,133.8c-3.7,2-7.5,4.1-11.2,6.1c-0.3-6.1,0.4-12.1,1.1-19.2C317.6,125.6,320.8,129.7,324,133.8z"/>
	<path class="st63" d="M179.7,141.7c-0.9,2.5-2.8,4.5-3.1,7.3c-5.3-4.7-10.7-9.3-16-14c-0.2-1.1,0.1-1.7,1.3-1.3
		C168,136.1,174,138.6,179.7,141.7z"/>
	<path class="st64" d="M305.5,203c3.3-3.2,5.2-7.4,7.3-11.4c1.7,6.5,3.4,12.9,5.4,20.7C313.2,208.6,309.3,205.8,305.5,203z"/>
	<path class="st65" d="M280.3,335.8c-6.3-2.5-11.5-4.6-16.8-6.7c0.4-0.7,0.5-1.2,0.8-1.5c7.1-6.7,7.1-6.7,12.3,1.7
		C277.6,331.1,278.6,332.9,280.3,335.8z"/>
	<path class="st66" d="M324.4,182.9c-4,1.4-4.3,6.4-7.8,8.3c-0.8-2.9-1.6-5.7-2.3-8.6c-0.7-2.8-1.4-5.6-2.4-9.7
		C316.9,176.3,320.9,179.3,324.4,182.9z"/>
	<path class="st67" d="M308.5,96c4.1,7.9,8.1,15.8,12.2,23.7c0.5,1.7,0.6,3-1.8,2.2c-7.5-6.6-8.2-16.2-11.4-24.7
		C307,96.1,307.6,95.8,308.5,96z"/>
	<path class="st36" d="M315.7,309.1c-2.4-2.1-4.7-4.1-7.1-6.2c2.9-2.5,5.3-5.5,8.9-7.2c1.8,0.4,2.8,1.6,3.4,3.3
		C319.2,302.4,317.5,305.7,315.7,309.1z"/>
	<path class="st68" d="M263,309.6c1.9,2.5,3.7,5,5.6,7.4c1.2,1.4,0.6,2.3-0.6,3.2c-1.9,1.5-3.8,3.1-6.2,5.1c0-5.6,0-10.4,0-15.3
		C262.3,309.9,262.7,309.7,263,309.6z"/>
	<path class="st69" d="M144.5,68.8c-5.1,2.3-9.3,4.1-14.2,6.3c1-3.3,1.8-5.8,2.4-8.3c0.5-2.3,1.7-2.5,3.6-1.6
		C138.6,66.3,141,67.3,144.5,68.8z"/>
	<path class="st70" d="M332.7,184.9c2.7-1.6,4.4-4.8,8-5c1.3,4,1.9,8.1,2,13.2C338.9,190,335.8,187.5,332.7,184.9z"/>
	<path class="st71" d="M222.5,193c1.8-0.2,2.8-1,3.2-3c0.5-2.7,1.3-5.3,2-7.9c1.9,0.3,3.9,0.6,6.3,1c-2.2,3.5-4.3,6.4-6,9.6
		C226.2,196.2,224.5,196,222.5,193z"/>
	<path class="st72" d="M277.6,190.9c3.3-0.7,2.1-5.5,5.5-6.2c2.1,2.9,4.3,5.7,6.9,9.3C285.1,193.4,281.3,192.5,277.6,190.9z"/>
	<path class="st73" d="M196.1,151.4c1.2,1.9,2.4,3.7,3.5,5.5c2.6,4.3,2.3,4.7-3,5.1c-2.3,0.2-3.5-0.2-2.9-2.8
		c0.5-2.1,0.9-4.2,1.4-6.3C195.2,152.5,195.6,152.1,196.1,151.4z"/>
	<path class="st74" d="M264.8,307.1c3.5-0.4,7.1-0.7,9.1,1.3c1.3,1.4-1.4,4.2-2.1,7.5C269.2,312.5,267.1,310,264.8,307.1z"/>
	<path class="st75" d="M275.7,322.1c7.4,0.3,7.7,0.8,6.4,10.5C279.8,328.9,277.9,325.6,275.7,322.1z"/>
	<path class="st76" d="M377.7,217.7c2.7-0.6,4.6-2.2,5.9-4.5c2.8,0.9,5.5,1.9,8.3,2.8C387.1,217.2,382.5,218.1,377.7,217.7z"/>
	<path class="st77" d="M320.9,299c-1.6-0.7-2.7-1.8-3.4-3.3c1.9-1.9,5-5.5,6.2-4.4c2.3,2.1-1.6,4.5-2.2,7
		C321.5,298.6,321.2,298.8,320.9,299z"/>
	<path class="st78" d="M202.1,164.4c-1.4,3-2.4,5-3.7,7.6c-1.6-2.3-2.8-4.1-4.5-6.7C196.9,165,199,164.7,202.1,164.4z"/>
	<path class="st79" d="M266.6,303.5c2.6-1.2,4.2-2,5.8-2.6c0.8-0.3,1.8-1.4,2.4,0c0.4,0.9,0.5,1.9,0.4,2.8c-0.2,1.4-1.4,1.2-2.3,1
		C271.2,304.5,269.4,304.1,266.6,303.5z"/>
	<path class="st80" d="M318.9,121.9c1.4-0.1,1.7-1,1.8-2.2c2.4,3.6,4.6,7.4,6.3,12.9C323.8,128.3,321.3,125.1,318.9,121.9z"/>
	<path class="st81" d="M239.6,120.7c0.1,4.1,0.1,8.1,0.2,12.2c-0.6,4,0.8,8.1-0.9,11.9C238.7,136.8,238.7,128.7,239.6,120.7z"/>
	<path class="st82" d="M233.6,178c2.2-3.5,0.6-7.3,1-10.9c0.4-3.3-0.7-6.8,0.8-10.1c-0.1,6.9-0.1,13.7-0.2,20.6
		c0,0.3-0.5,0.7-0.9,0.9C234.2,178.5,233.8,178.1,233.6,178z"/>
	<path class="st83" d="M184.7,139.9c1.6-0.7,2.1-2,1.9-3.6c1.3,1.8,2.6,3.7,4.3,6.1C188.1,142,186.4,141.1,184.7,139.9z"/>
	<path class="st84" d="M322.6,228c0.2,0.6,0.4,1.2,0.6,1.8c0.4,1.2,1.1,2.5-0.5,3.4c-0.4,0.2-1.1,0.5-1.3,0.4
		c-1.1-1-0.4-2.4-0.5-3.6C321.5,229.4,320.6,227.4,322.6,228z"/>
	<path class="st85" d="M347.7,200.1c0,4-0.1,8-0.1,12C346.9,208.1,346.2,204.1,347.7,200.1z"/>
	<path class="st86" d="M309.7,130.1c-0.4-1.8,0.7-3.8-1.2-5.3c0.6-0.5,1.2-2.8,1.8-0.3C310.8,126.2,310,128.3,309.7,130.1z"/>
	<path class="st45" d="M312.6,143.7c-0.2,2.7,0.8,5.5-0.7,8.1C311.8,149.1,311.7,146.4,312.6,143.7z"/>
	<path class="st86" d="M308.7,147.1c0.2-2.7-0.8-5.5,0.7-8.1C309.5,141.7,309.6,144.5,308.7,147.1z"/>
	<path class="st87" d="M320,243.5c-0.5-1.8-0.7-3.1,0.8-4.5C321.9,240.8,320.8,241.9,320,243.5z"/>
	<path class="st88" d="M322.6,228c-0.6,0.7-1.2,1.4-1.8,2c-0.1-0.8-0.2-1.6-0.1-2.4c0.1-0.7-0.5-2,0.7-1.9
		C322.6,225.7,322.7,227,322.6,228z"/>
	<path class="st89" d="M279.6,166.8c1.4,1.8,3.5,0.6,5.2,1.2c-1.6,1.2-3.4,0.8-5.1,0.6C278.2,168.5,278.7,167.5,279.6,166.8z"/>
	<path class="st90" d="M161.9,133.7c-0.4,0.4-0.9,0.8-1.3,1.3c-1.2-0.5-2.2-1.2-2.5-2.7C159.7,132.1,160.9,132.8,161.9,133.7z"/>
	<path class="st91" d="M223.6,178c0.7-0.3,1.7,0,2-1c0.8,0.4,1.6,0.8,2.6,1.4C226.3,179.4,224.9,179,223.6,178z"/>
	<path class="st92" d="M308.5,96c-0.4,0.4-0.7,0.8-1.1,1.2c-1-1.1-1.2-2.5-1.2-4C308.1,93.4,308.1,94.9,308.5,96z"/>
</g>
</svg>
